<svg width="64" height="65" viewBox="0 0 64 65" fill="none" xmlns="http://www.w3.org/2000/svg">
<rect y="0.5" width="64" height="64" rx="32" fill="#FFF5F4"/>
<path fill-rule="evenodd" clip-rule="evenodd" d="M32.0013 14.1641C21.8761 14.1641 13.668 22.3722 13.668 32.4974C13.668 42.6226 21.8761 50.8307 32.0013 50.8307C42.1265 50.8307 50.3346 42.6226 50.3346 32.4974C50.3346 22.3722 42.1265 14.1641 32.0013 14.1641ZM33.668 25.8307C33.668 24.9103 32.9218 24.1641 32.0013 24.1641C31.0808 24.1641 30.3346 24.9103 30.3346 25.8307V32.4974C30.3346 33.4179 31.0808 34.1641 32.0013 34.1641C32.9218 34.1641 33.668 33.4179 33.668 32.4974V25.8307ZM32.0013 37.4974C31.0808 37.4974 30.3346 38.2436 30.3346 39.1641C30.3346 40.0845 31.0808 40.8307 32.0013 40.8307H32.018C32.9384 40.8307 33.6846 40.0845 33.6846 39.1641C33.6846 38.2436 32.9384 37.4974 32.018 37.4974H32.0013Z" fill="#F34040"/>
</svg>
