<svg width="22" height="21" viewBox="0 0 22 21" fill="none" xmlns="http://www.w3.org/2000/svg">
<path fill-rule="evenodd" clip-rule="evenodd" d="M10.4909 0.31589C10.8247 0.228037 11.1755 0.228037 11.5092 0.31589C11.8964 0.417821 12.225 0.666532 12.4871 0.864902L12.5601 0.92L13.1668 1.37507C13.2432 1.43182 13.3206 1.49004 13.3993 1.54927L13.5201 1.64L21.6001 7.7C22.0419 8.03137 22.1314 8.65817 21.8001 9.1C21.4687 9.54183 20.8419 9.63137 20.4001 9.3L20.0001 9V16.8386C20.0001 17.3657 20.0001 17.8205 19.9695 18.195C19.9372 18.5904 19.8659 18.9836 19.6731 19.362C19.3855 19.9265 18.9265 20.3854 18.362 20.673C17.9837 20.8658 17.5904 20.9371 17.1951 20.9694C16.8205 21 16.3658 21 15.8386 21H6.1615C5.63436 21 5.1796 21 4.80503 20.9694C4.40969 20.9371 4.01647 20.8658 3.63809 20.673C3.07361 20.3854 2.61466 19.9265 2.32704 19.362C2.13425 18.9836 2.06293 18.5904 2.03063 18.195C2.00003 17.8205 2.00004 17.3657 2.00006 16.8385L2.00006 9L1.60006 9.3C1.15823 9.63137 0.53143 9.54183 0.200059 9.1C-0.131312 8.65817 -0.0417688 8.03137 0.400059 7.7L8.48006 1.64L8.60074 1.5493C8.67945 1.49008 8.75681 1.43187 8.83322 1.37513L9.44006 0.92L9.51307 0.864901C9.77514 0.666532 10.1037 0.417821 10.4909 0.31589ZM8.00006 12.6V19H14.0001V12.6C14.0001 12.0399 14.0001 11.7599 13.8911 11.546C13.7952 11.3578 13.6422 11.2049 13.4541 11.109C13.2401 11 12.9601 11 12.4001 11H9.60006C9.04001 11 8.75998 11 8.54607 11.109C8.35791 11.2049 8.20493 11.3578 8.10905 11.546C8.00006 11.7599 8.00006 12.0399 8.00006 12.6Z" fill="black"/>
</svg>
